<svg width="379" height="125" viewBox="0 0 379 125" fill="none" xmlns="http://www.w3.org/2000/svg">
<path d="M7.431 73.0544C6.95835 73.1026 5.34789 69.5667 4.9305 68.8683C4.43964 68.0469 2.7931 68.2036 1.63915 67.9589C1.23057 67.8723 1.46371 67.2251 1.79235 66.8099C2.12099 66.3948 2.61024 66.0686 3.10691 65.9822C5.23121 65.6123 7.55221 66.8791 9.53147 67.7069C11.4562 68.5119 13.4826 69.0239 15.7065 69.6021C18.8293 70.4141 20.8955 70.5065 24.9257 70.5115C27.6177 70.5148 29.7911 69.36 33.4111 69.2735C39.1643 69.1361 48.0763 70.0123 53.8906 70.5905C65.1795 71.7132 73.2853 70.8376 76.8806 71.0847C85.6742 71.6891 92.0648 71.3318 94.1108 71.5789C101.406 72.4599 103.753 70.6746 105.9 69.7726C108.045 68.8718 110.345 67.8774 111.833 66.2342C113.371 64.5348 113.646 62.2831 114.388 60.3038C115.192 58.1572 117.758 56.8469 119.737 55.8511C121.713 54.8573 123.688 53.5457 125.749 52.3942C128.069 51.0983 130.113 50.5805 132.092 49.9208C134.072 49.261 136.043 48.2776 138.023 47.4498C140.051 46.6012 142.468 46.3008 144.447 45.473L144.533 45.4373C146.432 44.6431 148.426 43.8091 150.296 42.4287C152.08 41.1118 153.834 39.8762 156.221 38.7198C159.872 36.9514 162.888 37.7314 165.285 37.1532C167.623 36.5893 169.649 36.2488 171.628 35.5891C173.607 34.9293 182.429 34.5982 188.018 34.1065C191.412 33.8079 195.347 33.936 197.571 34.5142C200.851 35.367 203.58 35.4186 206.298 35.9968C211.225 37.0448 213.632 36.9011 215.611 38.3813C217.33 39.6661 219.563 40.1925 221.952 40.6916C224.191 41.1594 225.987 42.6635 227.966 43.9014C229.812 45.0559 231.918 46.1229 234.307 46.9506C236.354 47.6597 238.342 48.2677 240.647 48.8459C244.176 49.731 247.88 49.4241 250.699 48.9324C252.811 48.5641 254.651 46.1426 256.63 44.4871C258.454 42.9609 260.581 41.853 262.56 40.5335C264.539 39.214 266.511 37.5733 268.735 35.7596C272.128 32.9922 274.903 30.1702 276.894 27.6869C278.383 25.8311 279.528 23.7358 281.34 22.5769C283.424 21.2432 285.617 20.1083 288.174 19.199C290.503 18.3712 293.682 17.7955 296.739 16.8936C299.751 16.0047 302.093 15.4925 304.483 15.243C306.613 15.0205 308.844 14.3361 310.991 13.8444C315.174 12.8865 321.861 13.0216 324.251 12.3618C326.687 11.6892 329.6 10.5506 331.829 9.48065C334.087 8.39663 336.193 7.75343 338.254 6.92565C340.556 6.00081 342.618 5.28245 344.597 4.45467C346.522 3.64968 348.874 2.81146 353.154 2.39387C356.011 2.11512 358.264 1.16085 373.947 1.07436C377.217 1.05633 377.706 1.31899 377.876 1.64763C378.047 1.97627 377.883 2.46553 377.555 2.79911C376.106 4.26982 373.446 5.10454 371.135 6.3425C368.537 7.73462 365.38 8.89008 362.897 9.88589C360.96 10.6624 358.62 11.2029 355.981 11.8627C353.342 12.5224 350.386 13.1797 346.84 13.4293C344.256 13.6112 341.649 14.1681 339.67 14.8279C337.636 15.5057 335.719 16.6391 333.329 16.9702C330.916 17.3046 328.8 18.6159 326.821 19.6858C324.729 20.8164 321.881 20.5927 319.902 21.2524C317.804 21.9517 316.277 24.2102 314.466 25.6162C312.513 27.1319 310.02 28.826 309.106 30.8003C307.923 33.3551 308.202 35.5767 306.969 37.4744C305.684 39.452 303.102 39.8663 301.614 41.5095C299.494 43.8517 297.329 46.9432 296.588 48.9225C295.772 51.102 295.026 53.3678 294.446 55.6757C293.89 57.8863 290.747 58.4778 289.751 60.289C288.784 62.0479 290.075 64.2401 290.816 66.3009C291.703 68.7675 292.219 74.5787 290.744 78.0826C289.834 80.2433 287.613 81.537 285.721 83.0245C283.573 84.7125 281.031 85.3324 278.802 85.9922C275.844 86.8677 272.461 86.815 266.487 87.6378C253.61 89.4112 243.961 89.1229 242.399 89.4516C238.745 90.2206 234.408 90.2744 232.429 90.9341C230.302 91.643 227.984 92.2512 226.004 92.9109C223.767 93.6567 221.065 93.7338 218.594 93.9833C215.776 94.268 213.158 94.7222 209.948 95.3819C207.669 95.8504 205.745 97.0251 203.355 97.5243C201.031 98.0098 198.826 99.0019 196.847 99.9112C194.801 100.851 192.896 101.967 190.096 103.287C187.736 104.399 185.977 106.415 183.998 107.243C182.073 108.048 179.394 108.233 177.079 108.725C175.058 109.155 173.622 111.357 172.053 113.087C170.468 114.833 168.186 115.805 164.895 117.043C162.029 118.12 159.29 118.444 156.328 119.514C153.147 120.662 150.395 120.915 147.514 121.574C144.783 122.2 142.488 122.891 139.199 123.47C134.639 124.271 129.994 124.048 124.054 123.638C114.826 123 112.51 122.733 108.722 122.484C106.183 122.316 103.94 121.251 101.961 120.099C99.8235 118.856 98.01 116.645 96.3594 114.584C94.3509 112.076 92.5738 110.546 90.5946 109.308C88.8019 108.187 85.6649 108.233 83.1816 107.742C81.135 107.337 78.9043 106.099 76.757 105.271C71.5419 103.26 61.9336 104.448 58.7238 104.117C55.9965 103.835 53.5323 102.471 51.1428 101.401C49.1411 100.505 46.4554 100 43.7299 99.2589C41.2729 98.5906 38.5482 97.035 35.8227 95.5549C33.7453 94.4267 31.7876 93.0814 29.7268 92.4217C27.3178 91.6504 25.3631 90.2843 23.3838 88.6361C21.7352 87.2633 19.4327 86.8249 17.8636 85.0952C16.2791 83.3485 13.9965 82.7033 12.4275 81.2232C10.6499 79.5464 8.39235 77.6032 7.56457 75.6239C7.39901 75.1273 7.23593 74.638 7.23345 74.1413C7.23165 73.778 7.31846 73.4185 7.431 73.0544Z" fill="#B5A6E9"/>
<path d="M7.5621 72.6513C7.56979 74.452 5.42222 69.6911 4.9305 68.8683C4.43964 68.0469 2.7931 68.2036 1.63915 67.9589C1.23057 67.8723 1.46371 67.2251 1.79235 66.8099C2.12099 66.3948 2.61024 66.0686 3.10691 65.9822C5.23121 65.6123 7.55221 66.8791 9.53147 67.7069C11.4562 68.5119 13.4826 69.0239 15.7065 69.6021C18.8293 70.4141 20.8955 70.5065 24.9257 70.5115C27.6177 70.5148 29.7911 69.36 33.4111 69.2735C39.1643 69.1361 48.0763 70.0123 53.8906 70.5905C65.1795 71.7132 73.2853 70.8376 76.8806 71.0847C85.6742 71.6891 92.0648 71.3318 94.1108 71.5789C101.406 72.4599 103.753 70.6746 105.9 69.7726C108.045 68.8718 110.345 67.8774 111.833 66.2342C113.371 64.5348 113.646 62.2831 114.388 60.3038C115.192 58.1572 117.758 56.8469 119.737 55.8511C121.713 54.8573 123.688 53.5457 125.749 52.3942C128.069 51.0983 130.113 50.5805 132.092 49.9208C134.071 49.261 136.043 48.2776 138.023 47.4498C140.051 46.6013 142.468 46.3008 144.447 45.473C146.372 44.668 148.398 43.8298 150.296 42.4287C152.08 41.1118 153.834 39.8762 156.221 38.7198C159.872 36.9514 162.888 37.7314 165.285 37.1532C167.623 36.5893 169.649 36.2488 171.628 35.5891C173.607 34.9293 182.429 34.5982 188.018 34.1065C191.412 33.8079 195.347 33.936 197.571 34.5142C200.851 35.367 203.58 35.4186 206.298 35.9968C211.225 37.0448 213.632 36.9011 215.611 38.3813C217.33 39.6661 219.563 40.1925 221.952 40.6916C224.191 41.1594 225.987 42.6635 227.966 43.9014C229.812 45.0559 231.918 46.1229 234.307 46.9506C236.354 47.6597 238.342 48.2677 240.647 48.8459C244.176 49.731 247.88 49.4241 250.699 48.9324C252.811 48.5641 254.651 46.1426 256.63 44.4871C258.454 42.9609 260.581 41.853 262.56 40.5335C264.539 39.214 266.511 37.5733 268.735 35.7596C272.128 32.9922 274.903 30.1702 276.894 27.6869C278.383 25.8311 279.528 23.7358 281.34 22.5769C283.424 21.2432 285.617 20.1083 288.174 19.199C290.503 18.3712 293.682 17.7955 296.739 16.8936C299.751 16.0047 302.093 15.4926 304.483 15.243C306.613 15.0205 308.844 14.3361 310.991 13.8444C315.174 12.8865 321.861 13.0216 324.251 12.3618C326.687 11.6892 329.6 10.5506 331.829 9.48065C334.087 8.39663 336.193 7.75343 338.254 6.92565C340.556 6.00081 342.618 5.28245 344.597 4.45467C346.522 3.64968 348.874 2.81146 353.154 2.39387C356.011 2.11512 358.264 1.16085 373.947 1.07436C377.217 1.05633 377.706 1.31899 377.876 1.64763C378.047 1.97627 377.883 2.46553 377.555 2.79911C376.106 4.26982 373.446 5.10454 371.135 6.3425C368.537 7.73462 365.38 8.89008 362.897 9.88589C360.96 10.6624 358.62 11.2029 355.981 11.8627C353.342 12.5224 350.386 13.1797 346.84 13.4293C344.256 13.6112 341.649 14.1681 339.67 14.8279C337.636 15.5057 335.719 16.6391 333.329 16.9702C330.916 17.3046 328.8 18.6159 326.821 19.6858C324.729 20.8164 321.881 20.5927 319.902 21.2524C317.804 21.9517 316.277 24.2102 314.466 25.6162C312.513 27.1319 310.02 28.826 309.106 30.8003C307.923 33.3551 308.202 35.5767 306.969 37.4744C305.684 39.452 303.102 39.8663 301.614 41.5095C299.494 43.8517 297.329 46.9432 296.588 48.9225C295.772 51.102 295.026 53.3678 294.446 55.6757C293.89 57.8863 290.747 58.4778 289.751 60.289C288.784 62.0479 290.075 64.2401 290.816 66.3009C291.703 68.7675 292.219 74.5787 290.744 78.0826C289.834 80.2433 287.613 81.537 285.721 83.0245C283.573 84.7125 281.031 85.3324 278.802 85.9922C275.844 86.8677 272.461 86.815 266.487 87.6378C253.61 89.4112 243.961 89.1229 242.399 89.4516C238.745 90.2207 234.408 90.2744 232.429 90.9341C230.302 91.643 227.984 92.2512 226.004 92.9109C223.767 93.6567 221.065 93.7338 218.594 93.9833C215.776 94.268 213.158 94.7222 209.948 95.3819C207.669 95.8504 205.745 97.0251 203.355 97.5243C201.031 98.0098 198.826 99.0019 196.847 99.9112C194.801 100.851 192.896 101.967 190.096 103.287C187.736 104.399 185.977 106.415 183.998 107.243C182.073 108.048 179.394 108.233 177.079 108.725C175.058 109.155 173.622 111.357 172.053 113.087C170.468 114.833 168.186 115.805 164.895 117.043C162.029 118.12 159.29 118.444 156.328 119.514C153.147 120.662 150.395 120.915 147.514 121.574C144.783 122.2 142.488 122.891 139.199 123.47C134.639 124.271 129.994 124.048 124.054 123.638C114.826 123 112.51 122.733 108.722 122.484C106.183 122.316 103.94 121.251 101.961 120.099C99.8235 118.856 98.01 116.645 96.3594 114.584C94.3509 112.076 92.5738 110.546 90.5946 109.308C88.8019 108.187 85.6649 108.234 83.1816 107.742C81.135 107.337 78.9043 106.099 76.757 105.271C71.5419 103.26 61.9336 104.448 58.7238 104.117C55.9965 103.835 53.5323 102.471 51.1428 101.401C49.1411 100.505 46.4554 100 43.7299 99.2589C41.2729 98.5906 38.5482 97.035 35.8227 95.5549C33.7453 94.4267 31.7876 93.0814 29.7268 92.4217C27.3178 91.6504 25.3631 90.2843 23.3838 88.6361C21.7352 87.2633 19.4327 86.8249 17.8636 85.0952C16.2791 83.3485 13.9965 82.7033 12.4275 81.2232C10.6499 79.5464 8.39235 77.6032 7.56457 75.6239C7.39901 75.1273 7.23593 74.638 7.23345 74.1413C7.23098 73.6447 7.39407 73.1554 7.5621 72.6513Z" stroke="#B5A6E9" strokeWidth="2" strokeLinecap="round"/>
</svg>
