<svg width="452" height="87" viewBox="0 0 452 87" fill="none" xmlns="http://www.w3.org/2000/svg">
<path d="M2 26.2538C3.02499 26.1607 11.6422 30.0357 27.1135 30.1351C32.1345 30.1674 34.3566 28.7183 36.6308 28.3378C39.1381 27.9184 41.1709 26.4469 43.4451 25.2175C45.6458 24.0278 48.3599 22.2902 50.6399 20.4872C52.5158 19.0038 53.482 16.6116 55.2765 14.8086C57.1881 12.8879 58.7745 10.3651 61.0487 8.74957C63.128 7.27254 66.1566 7.70755 68.6183 6.57184C71.5895 5.20101 74.1066 5.24305 76.8522 4.30041C79.8887 3.25788 87.1333 2.40376 91.6137 1.93244C94.1399 1.66669 96.2588 1.64851 101.327 1.36458C123.483 0.123343 125.782 2.40376 128.056 2.96878C130.383 3.54679 132.596 4.48212 134.87 5.24021L141.685 7.51164C143.909 8.25313 146.225 8.45713 149.53 9.12152C156.878 10.5988 159.285 10.1607 161.841 10.8251C165.429 11.7581 167.803 11.8643 177.619 12.151C181.493 12.2642 183.703 13.1931 189.257 13.6644C200.189 14.5922 208.127 13.9483 211.508 14.2322C225.118 15.3749 233.8 14.8966 239.356 14.3316C242.052 14.0575 245.032 13.3861 247.778 13.0994C250.406 12.8249 254.856 12.0573 258.189 11.586C260.925 11.1992 264.328 10.9216 267.181 10.3566C269.708 9.8563 274.913 9.21806 278.538 8.65304C282.859 7.9797 289.325 7.70755 291.599 6.94946C293.824 6.20798 296.139 6.00398 298.413 5.33959C300.613 4.6969 302.953 4.30041 306.264 4.01364C309.232 3.75652 311.471 3.16469 319.873 2.87792C325.107 2.69926 330.779 2.02897 342.951 1.9296C347.651 1.89123 351.028 2.77855 353.589 3.91426C356.155 5.05197 358.604 5.99262 360.878 6.94379C363.089 7.86876 365.418 8.83191 367.692 9.87677C370.043 10.9566 372.232 11.8643 374.978 13.565C377.149 14.9102 379.614 15.6462 381.982 16.5974C384.628 17.6601 386.996 18.1107 389.271 18.8688C391.545 19.6269 393.811 20.3821 397.028 20.7626C399.827 21.0937 402.329 22.0857 404.603 22.8438C406.827 23.5853 409.518 24.1641 413.87 24.6439C416.595 24.9443 418.797 25.6859 421.164 26.1573C423.899 26.7016 429.552 27.3895 434.969 27.8608C444.325 28.6748 447.371 28.5252 450.117 28.8063C451.028 28.8996 450.801 29.6496 450.423 30.1266C448.802 32.1752 446.644 33.4429 444.37 34.2947C441.948 35.2019 439.83 36.2822 437.556 36.5689C434.886 36.9056 431.88 37.4179 423.609 38.0823C417.062 38.6082 404.487 38.1788 397.738 38.0851C387.963 37.9494 383.044 37.2362 379.827 36.9494C376.034 36.6112 371.119 36.1005 359.418 36.0011C355.162 35.9649 352.573 37.0431 350.106 37.6081C347.769 38.1433 345.566 39.4963 343.291 40.0698C340.733 40.7149 338.183 41.7677 335.909 42.7188C333.697 43.6438 331.369 43.8574 329.095 44.9874C326.55 46.2519 324.555 48.2072 322.281 49.5303C319.952 50.885 318.308 53.1249 316.505 55.0187C314.811 56.7985 312.062 57.6677 309.788 59.1839C307.423 60.7601 305.248 62.7784 302.973 63.8233C300.623 64.9032 298.433 65.8108 296.159 67.1339C293.882 68.4585 291.619 69.5927 289.345 71.5802C287.324 73.3464 284.805 74.1356 282.53 75.1805C280.094 76.2997 277.99 78.1106 275.716 79.1555C273.366 80.2353 271.176 81.143 268.902 82.3724C266.701 83.562 264.362 84.5501 259.651 85.2145C245.192 87.254 242.783 83.9936 240.509 82.5711C238.388 81.2446 236.344 79.6438 234.356 77.3696C232.543 75.2943 231.415 73.3974 229.907 71.5944C228.331 69.7093 227.258 67.1509 225.27 65.8193C223.083 64.3538 222.147 61.4724 220.066 59.2918C218.163 57.2981 216.094 55.6007 214.291 53.6132C212.47 51.6061 209.847 50.49 208.044 48.5962C206.35 46.8164 203.601 46.3219 189.544 46.2225C182.404 46.1721 175.208 47.0715 163.036 47.1709C159.864 47.1968 151.239 46.6967 138.749 46.603C133.747 46.5655 132.426 46.1288 131.009 46.0351C129.75 45.9519 120.205 45.561 106.296 45.4673C99.6605 45.4226 97.4115 44.6183 87.1248 44.3316C81.3183 44.1697 75.2651 43.4826 72.0481 43.1959C69.1781 42.94 66.1793 42.3469 63.9051 41.6825C61.7051 41.0398 55.2424 41.0181 50.6569 40.5468C47.4388 40.216 42.9199 39.8824 39.0187 39.4111C34.3985 38.8529 32.1078 38.7467 29.7399 38.2754C27.005 37.731 24.7257 37.0431 22.4514 36.3844C19.8763 35.6385 17.9114 33.829 15.6371 33.0709L8.82282 30.7995C6.54854 29.854 4.84497 28.7183 3.71209 27.9631C3.14139 27.5826 2.57922 27.2078 2 26.2538Z" fill="#EE289B"/>
<path d="M134.87 5.24021C132.596 4.48212 130.383 3.54679 128.056 2.96878C125.782 2.40376 123.483 0.123343 101.327 1.36458C96.2588 1.64851 94.1399 1.66669 91.6137 1.93244C87.1333 2.40376 79.8887 3.25788 76.8522 4.30041C74.1066 5.24305 71.5895 5.20101 68.6183 6.57184C66.1566 7.70755 63.128 7.27254 61.0487 8.74957C58.7745 10.3651 57.1881 12.8879 55.2765 14.8086C53.482 16.6116 52.5158 19.0038 50.6399 20.4872C48.3599 22.2902 45.6458 24.0278 43.4451 25.2175C41.1709 26.4469 39.1381 27.9184 36.6308 28.3378C34.3566 28.7183 32.1345 30.1674 27.1135 30.1351C11.6422 30.0357 3.02499 26.1607 2 26.2538C2.57922 27.2078 3.14139 27.5826 3.71209 27.9631C4.84497 28.7183 6.54854 29.854 8.82282 30.7995M134.87 5.24021C137.145 5.9983 139.41 6.75355 141.685 7.51164M134.87 5.24021L141.685 7.51164M141.685 7.51164C143.909 8.25313 146.225 8.45713 149.53 9.12152C156.878 10.5988 159.285 10.1607 161.841 10.8251C165.429 11.7581 167.803 11.8643 177.619 12.151C181.493 12.2642 183.703 13.1931 189.257 13.6644C200.189 14.5922 208.127 13.9483 211.508 14.2322C225.118 15.3749 233.8 14.8966 239.356 14.3316C242.052 14.0575 245.032 13.3861 247.778 13.0994C250.406 12.8249 254.856 12.0573 258.189 11.586C260.925 11.1992 264.328 10.9216 267.181 10.3566C269.708 9.8563 274.913 9.21806 278.538 8.65304C282.859 7.9797 289.325 7.70755 291.599 6.94946C293.824 6.20798 296.139 6.00398 298.413 5.33959C300.613 4.6969 302.953 4.30041 306.264 4.01364C309.232 3.75652 311.471 3.16469 319.873 2.87792C325.107 2.69926 330.779 2.02897 342.951 1.9296C347.651 1.89123 351.028 2.77855 353.589 3.91426C356.155 5.05197 358.604 5.99262 360.878 6.94379C363.089 7.86876 365.418 8.83191 367.692 9.87677C370.043 10.9566 372.232 11.8643 374.978 13.565C377.149 14.9102 379.614 15.6462 381.982 16.5974C384.628 17.6601 386.996 18.1107 389.271 18.8688C391.545 19.6269 393.811 20.3821 397.028 20.7626C399.827 21.0937 402.329 22.0857 404.603 22.8438C406.827 23.5853 409.518 24.1641 413.87 24.6439C416.595 24.9443 418.797 25.6859 421.164 26.1573C423.899 26.7016 429.552 27.3895 434.969 27.8608C444.325 28.6748 447.371 28.5252 450.117 28.8063C451.028 28.8996 450.801 29.6496 450.423 30.1266C448.802 32.1752 446.644 33.4429 444.37 34.2947C441.948 35.2019 439.83 36.2822 437.556 36.5689C434.886 36.9056 431.88 37.4179 423.609 38.0823C417.062 38.6082 404.487 38.1788 397.738 38.0851C387.963 37.9494 383.044 37.2362 379.827 36.9494C376.034 36.6112 371.119 36.1005 359.418 36.0011C355.162 35.9649 352.573 37.0431 350.106 37.6081C347.769 38.1433 345.566 39.4963 343.291 40.0698C340.733 40.7149 338.183 41.7677 335.909 42.7188C333.697 43.6438 331.369 43.8574 329.095 44.9874C326.55 46.2519 324.555 48.2072 322.281 49.5303C319.952 50.885 318.308 53.1249 316.505 55.0187C314.811 56.7985 312.062 57.6677 309.788 59.1839C307.423 60.7601 305.248 62.7784 302.973 63.8233C300.623 64.9032 298.433 65.8108 296.159 67.1339C293.882 68.4585 291.619 69.5927 289.345 71.5802C287.324 73.3464 284.805 74.1356 282.53 75.1805C280.094 76.2997 277.99 78.1106 275.716 79.1555C273.366 80.2353 271.176 81.143 268.902 82.3724C266.701 83.562 264.362 84.5501 259.651 85.2145C245.192 87.254 242.783 83.9936 240.509 82.5711C238.388 81.2446 236.344 79.6438 234.356 77.3696C232.543 75.2943 231.415 73.3974 229.907 71.5944C228.331 69.7093 227.258 67.1509 225.27 65.8193C223.083 64.3538 222.147 61.4724 220.066 59.2918C218.163 57.2981 216.094 55.6007 214.291 53.6132C212.47 51.6061 209.847 50.49 208.044 48.5962C206.35 46.8164 203.601 46.3219 189.544 46.2225C182.404 46.1721 175.208 47.0715 163.036 47.1709C159.864 47.1968 151.239 46.6967 138.749 46.603C133.747 46.5655 132.426 46.1288 131.009 46.0351C129.75 45.9519 120.205 45.561 106.296 45.4673C99.6605 45.4226 97.4115 44.6183 87.1248 44.3316C81.3183 44.1697 75.2651 43.4826 72.0481 43.1959C69.1781 42.94 66.1793 42.3469 63.9051 41.6825C61.7051 41.0398 55.2424 41.0181 50.6569 40.5468C47.4388 40.216 42.9199 39.8824 39.0187 39.4111C34.3985 38.8529 32.1078 38.7467 29.7399 38.2754C27.005 37.731 24.7257 37.0431 22.4514 36.3844C19.8763 35.6385 17.9114 33.829 15.6371 33.0709M15.6371 33.0709C13.3628 32.3128 11.0971 31.5576 8.82282 30.7995M15.6371 33.0709L8.82282 30.7995" stroke="#EE289B" stroke-width="2" stroke-linecap="round"/>
</svg>
