<svg width="416" height="75" viewBox="0 0 416 75" fill="none" xmlns="http://www.w3.org/2000/svg">
<path d="M163.384 4.53019C163.129 4.52591 162.881 4.5238 162.642 4.5238C158.901 4.66111 160.137 5.6306 156.804 4.51964C153.471 3.40869 150.082 0.334371 144.038 1.33657C139.873 2.02728 136.066 3.25999 131.976 5.3643C127.657 7.58621 119.475 10.9196 115.195 14.6597C111.862 17.5723 109.118 20.3761 105.9 22.1451C101.593 24.5127 97.9407 27.1942 94.3909 28.5238C91.058 29.772 87.6615 32.2245 78.1509 31.012C72.7335 30.3213 67.2881 29.3292 63.1759 28.7942C57.7709 28.091 53.8665 26.5177 50.2855 25.324C46.9527 24.2131 43.8492 22.63 40.2994 21.3005C36.9665 20.0522 33.2923 15.9569 21.9749 18.8123C16.9943 20.0689 13.2855 21.7939 10.1996 24.6458C6.74191 27.8414 3.41904 30.0341 2.16494 33.8039C1.47424 35.8802 1.48256 37.8275 2.03596 39.4877C2.58935 41.1479 3.55767 42.8762 5.37298 43.5029C8.98879 44.7512 12.7688 46.3973 17.0276 46.8275C21.1885 47.2477 25.1608 47.4623 28.6739 48.6333C32.0068 49.7442 35.5279 50.4103 38.66 52.1035C41.9929 53.9051 45.4211 55.3532 48.6461 57.0965C51.979 58.8982 55.4532 60.304 59.3271 62.7844C62.7973 65.0064 66.2255 67.0036 69.4505 68.747C72.7834 70.5486 75.926 72.3149 79.4366 72.9079C88.4283 74.4266 102.708 73.7899 106.066 72.7581C109.682 71.6471 113.548 70.5341 116.885 68.593C120.217 66.6541 123.538 64.4322 126.871 62.6305C130.204 60.8288 134.164 59.2927 137.689 56.9426C141.022 54.7207 144.342 53.0646 147.675 51.9537C151.008 50.8427 154.97 49.5819 159.188 48.4877C162.941 47.514 167.942 46.472 172.645 45.2963C177.088 44.1853 181.485 42.2867 196.287 42.109C207.729 41.9717 228.88 41.7424 240.155 42.1132C252.808 42.5293 256.484 42.8774 262.798 41.8303C266.963 41.1396 274.262 38.2602 284.164 39.6167C287.202 40.0328 301.341 41.1763 320.83 40.1659C334.153 39.4752 344.801 40.0586 351.009 38.5016C354.891 37.5279 359.308 36.4684 371.272 36.2838C380.173 36.1465 396.65 36.1465 405.313 36.005C413.976 35.8636 415.02 35.4641 414.787 35.3102C413.951 34.7568 395.857 35.032 379.457 35.177C363.929 35.3143 352.917 34.773 342.492 34.6194C333.171 34.4821 316.138 34.7116 307.066 34.3407C296.888 33.9246 279.268 35.739 268.311 32.8136C264.151 31.7027 260.83 30.5959 257.497 29.4849C254.164 28.374 250.287 27.2672 245.843 26.1562C241.399 25.0453 237.506 24.1282 233.36 23.5224C228.633 22.8317 224.328 21.8456 220.882 21.1632C216.7 20.3351 211.667 20.2136 207.421 19.3615C202.57 18.3879 199.048 17.7218 195.916 16.0286C192.583 14.227 188.726 13.0499 184.957 12.0092C180.933 10.8983 178.755 7.85675 175.669 6.45861C172.801 5.15886 167.248 4.59505 163.384 4.53019Z" fill="#D22392"/>
<path d="M162.642 4.5238C158.901 4.66111 160.137 5.6306 156.804 4.51964C153.471 3.40869 150.082 0.334371 144.038 1.33657C139.873 2.02728 136.066 3.25999 131.976 5.3643C127.657 7.58621 119.475 10.9196 115.195 14.6597C111.862 17.5723 109.118 20.3761 105.9 22.1451C101.593 24.5127 97.9407 27.1942 94.3909 28.5238C91.058 29.772 87.6615 32.2245 78.1509 31.012C72.7335 30.3213 67.2881 29.3292 63.1759 28.7942C57.7709 28.091 53.8665 26.5177 50.2855 25.324C46.9527 24.2131 43.8492 22.63 40.2994 21.3005C36.9665 20.0522 33.2923 15.9569 21.9749 18.8123C16.9943 20.0689 13.2855 21.7939 10.1996 24.6458C6.74191 27.8414 3.41904 30.0341 2.16494 33.8039C1.47424 35.8802 1.48256 37.8275 2.03596 39.4877C2.58935 41.1479 3.55767 42.8762 5.37298 43.5029C8.98879 44.7512 12.7688 46.3973 17.0276 46.8275C21.1885 47.2477 25.1608 47.4623 28.6739 48.6333C32.0068 49.7442 35.5279 50.4103 38.66 52.1035C41.9929 53.9051 45.4211 55.3532 48.6461 57.0965C51.979 58.8982 55.4532 60.304 59.3271 62.7844C62.7973 65.0064 66.2255 67.0036 69.4505 68.747C72.7834 70.5486 75.926 72.3149 79.4366 72.9079C88.4283 74.4266 102.708 73.7899 106.066 72.7581C109.682 71.6471 113.548 70.5341 116.885 68.593C120.217 66.6541 123.538 64.4322 126.871 62.6305C130.204 60.8288 134.164 59.2927 137.689 56.9426C141.022 54.7207 144.342 53.0646 147.675 51.9537C151.008 50.8427 154.97 49.5819 159.188 48.4877C162.941 47.514 167.942 46.472 172.645 45.2963C177.088 44.1853 181.485 42.2867 196.287 42.109C207.729 41.9717 228.88 41.7424 240.155 42.1132C252.808 42.5293 256.484 42.8774 262.798 41.8303C266.963 41.1396 274.262 38.2602 284.164 39.6167C287.202 40.0328 301.341 41.1763 320.83 40.1659C334.153 39.4752 344.801 40.0586 351.009 38.5016C354.891 37.5279 359.308 36.4684 371.272 36.2838C380.173 36.1465 396.65 36.1465 405.313 36.005C413.976 35.8636 415.02 35.4641 414.787 35.3102C413.951 34.7568 395.857 35.032 379.457 35.177C363.929 35.3143 352.917 34.773 342.492 34.6194C333.171 34.4821 316.138 34.7116 307.066 34.3407C296.888 33.9246 279.268 35.739 268.311 32.8136C264.151 31.7027 260.83 30.5959 257.497 29.4849C254.164 28.374 250.287 27.2672 245.843 26.1562C241.399 25.0453 237.506 24.1282 233.36 23.5224C228.633 22.8317 224.328 21.8456 220.882 21.1632C216.7 20.3351 211.667 20.2136 207.421 19.3615C202.57 18.3879 199.048 17.7218 195.916 16.0286C192.583 14.227 188.726 13.0499 184.957 12.0092C180.933 10.8983 178.755 7.85675 175.669 6.45861C172.801 5.15886 167.248 4.59505 163.384 4.53019M162.642 4.5238C162.881 4.5238 163.129 4.52591 163.384 4.53019M162.642 4.5238C162.83 4.50708 163.083 4.51097 163.384 4.53019M170.964 5.35598C170.218 5.60446 165.554 4.66878 163.384 4.53019" stroke="#D22392" stroke-width="2" stroke-linecap="round"/>
</svg>
