<svg width="343" height="80" viewBox="0 0 343 80" fill="none" xmlns="http://www.w3.org/2000/svg">
<path d="M48.8232 35.6427C49.1183 35.6516 54.4884 36.0988 58.0699 34.4533C59.9452 33.5918 67.8487 32.8079 79.0226 32.9554C95.5507 33.1737 118.876 33.1119 123.199 32.6603C127.144 32.2483 131.091 29.5348 134.977 27.5987C138.402 25.8924 142.127 24.4733 147.34 22.8278C152.5 21.1993 156.435 17.6232 160.017 14.9314C164.587 11.4966 169.849 6.58791 173.578 4.34777C177.464 2.01367 183.245 2.40273 189.514 1.66049C198.414 0.606764 202.043 2.99295 205.919 4.03924C210.838 5.36677 214.562 6.26597 218.886 7.76387C222.684 9.07964 226.188 11.6316 229.769 13.8717C233.725 16.3456 239.602 16.407 246.152 16.8586C253.022 17.3322 261.959 18.1955 267.767 18.6471C281.816 19.7394 306.368 18.8036 310.401 17.6098C314.79 16.3106 319.478 14.3323 324.41 12.2486C329.025 10.2989 333.196 6.87408 337.229 5.38959C338.252 5.01323 339.456 5.08554 340.064 6.11842C343.169 11.3926 339.188 15.7989 338.141 20.4133C337.061 25.1774 337.399 29.2218 336.21 31.0059C333.981 34.3492 329.369 35.1866 325.483 36.3805C321.606 37.5718 317.439 38.7637 312.373 39.2153C308.082 39.5979 304.025 41.4465 299.701 41.8981C295.846 42.3008 291.809 43.5391 287.334 45.0236C281.073 47.0999 277.197 46.8121 265.451 47.2637C257.805 47.5577 249.475 48.6006 231.048 48.7571C222.623 48.8287 215.492 47.4202 206.568 46.9686C200.793 46.6764 191.991 45.3276 185.977 46.9597C182.285 47.9617 178.827 49.4949 173.614 50.6888C168.951 51.7565 162.462 53.6622 157.065 55.1601C152.042 56.5544 148.422 58.1335 144.841 59.6314C141.358 61.0881 137.691 62.0147 134.11 63.2085C130.528 64.4024 126.96 65.5917 123.378 67.5278C120.013 69.3473 115.638 70.0631 111.011 71.4045C106.969 72.5759 103.119 73.9442 99.2331 74.834C94.7917 75.8511 89.4006 76.323 84.0484 77.3693C71.4423 79.8336 67.0439 74.5523 63.4624 73.0544C58.9916 71.1846 52.7356 71.5655 49.3016 69.3343C45.7578 67.0317 42.8987 63.8211 40.8016 60.6912C39.6898 59.0317 37.5241 58.4465 36.0351 57.5567C34.5488 56.6685 34.8324 53.3939 34.3897 50.5636C33.8201 46.9218 27.6961 47.4202 24.1145 46.2264C20.533 45.0325 16.3747 44.4333 12.4891 43.5436C8.82841 42.7053 5.37591 41.1765 2.6858 39.9854L2.64316 39.9665C-3.89708 37.0706 22.2947 38.4775 29.735 38.0259C36.9148 37.5901 44.6514 36.689 48.8232 35.6427Z" fill="white"/>
<path d="M48.8232 35.6427C49.1183 35.6516 54.4884 36.0988 58.0699 34.4533C59.9452 33.5918 67.8487 32.8079 79.0226 32.9554C95.5507 33.1737 118.876 33.1119 123.199 32.6603C127.144 32.2483 131.091 29.5348 134.977 27.5987C138.402 25.8924 142.127 24.4733 147.34 22.8278C152.5 21.1993 156.435 17.6232 160.017 14.9314C164.587 11.4966 169.849 6.58791 173.578 4.34777C177.464 2.01367 183.245 2.40273 189.514 1.66049C198.414 0.606764 202.043 2.99295 205.919 4.03924C210.838 5.36677 214.562 6.26597 218.886 7.76387C222.684 9.07964 226.188 11.6316 229.769 13.8717C233.725 16.3456 239.602 16.407 246.152 16.8586C253.022 17.3322 261.959 18.1955 267.767 18.6471C281.816 19.7394 306.368 18.8036 310.401 17.6098C314.79 16.3106 319.478 14.3323 324.41 12.2486C329.025 10.2989 333.196 6.87408 337.229 5.38959C338.252 5.01323 339.456 5.08554 340.064 6.11842C343.169 11.3926 339.188 15.7989 338.141 20.4133C337.061 25.1774 337.399 29.2218 336.21 31.0059C333.981 34.3492 329.369 35.1866 325.483 36.3805C321.606 37.5718 317.439 38.7637 312.373 39.2153C308.082 39.5979 304.025 41.4465 299.701 41.8981C295.846 42.3008 291.809 43.5391 287.334 45.0236C281.073 47.0999 277.197 46.8121 265.451 47.2637C257.805 47.5577 249.475 48.6006 231.048 48.7571C222.623 48.8287 215.492 47.4202 206.568 46.9686C200.793 46.6764 191.991 45.3276 185.977 46.9597C182.285 47.9617 178.827 49.4949 173.614 50.6888C168.951 51.7565 162.462 53.6622 157.065 55.1601C152.042 56.5544 148.422 58.1335 144.841 59.6314C141.358 61.0881 137.691 62.0147 134.11 63.2085C130.528 64.4024 126.96 65.5917 123.378 67.5278C120.013 69.3473 115.638 70.0631 111.011 71.4045C106.969 72.5759 103.119 73.9442 99.2331 74.834C94.7917 75.8511 89.4006 76.323 84.0484 77.3693C71.4423 79.8336 67.0439 74.5523 63.4624 73.0544C58.9916 71.1846 52.7356 71.5655 49.3016 69.3343C45.7578 67.0317 42.8987 63.8211 40.8016 60.6912C39.6898 59.0317 37.5241 58.4465 36.0351 57.5567C34.5488 56.6685 34.8324 53.3939 34.3897 50.5636C33.8201 46.9218 27.6961 47.4202 24.1145 46.2264C20.533 45.0325 16.3747 44.4333 12.4891 43.5436C8.82841 42.7053 5.37591 41.1765 2.6858 39.9854M48.8232 35.6427C44.6514 36.689 36.9148 37.5901 29.735 38.0259C22.2947 38.4775 -3.89708 37.0706 2.64316 39.9665M48.8232 35.6427C50.3121 35.4907 52.3779 35.4907 53.8847 35.3431C55.3916 35.1956 56.2769 34.9004 57.1891 34.5964M2.64316 39.9665L2.6858 39.9854M2.64316 39.9665C2.65735 39.9728 2.67157 39.9791 2.6858 39.9854" stroke="white" strokeWidth="2" strokeLinecap="round"/>
</svg>
